<svg width="140" height="33" viewBox="0 0 140 33" fill="none" xmlns="http://www.w3.org/2000/svg">
<g id="Group 38">
<g id="Group 11">
<g id="Group 8">
<rect id="Rectangle 28" x="0.5" y="0.5" width="138.604" height="32" rx="16" fill="#F1F5F9" stroke="#3A4351"/>
</g>
<g id="Group 9">
<path id="JavaScript" d="M45.794 11.0595H47.4246V18.7467C47.4246 19.442 47.287 20.0368 47.0117 20.5309C46.7399 21.025 46.3569 21.4027 45.8628 21.6639C45.3687 21.9215 44.7898 22.0504 44.1263 22.0504C43.5157 22.0504 42.9669 21.9392 42.4798 21.7168C41.9962 21.4945 41.6133 21.1715 41.3309 20.748C41.0521 20.3209 40.9127 19.8021 40.9127 19.1915H42.538C42.538 19.4915 42.6068 19.7509 42.7445 19.9697C42.8857 20.1885 43.078 20.3597 43.3216 20.4833C43.5686 20.6033 43.851 20.6633 44.1687 20.6633C44.5145 20.6633 44.8075 20.5909 45.0475 20.4462C45.291 20.298 45.4763 20.0809 45.6034 19.795C45.7305 19.5091 45.794 19.1597 45.794 18.7467V11.0595ZM52.6415 22.0821C52.1262 22.0821 51.6603 21.9868 51.2439 21.7962C50.8274 21.6021 50.4974 21.3215 50.2538 20.9544C50.0138 20.5874 49.8938 20.1374 49.8938 19.6044C49.8938 19.1456 49.9821 18.7679 50.1585 18.4714C50.335 18.175 50.5732 17.9402 50.8733 17.7673C51.1733 17.5943 51.5086 17.4638 51.8792 17.3755C52.2498 17.2873 52.6274 17.2202 53.0121 17.1743C53.4992 17.1179 53.8945 17.072 54.1981 17.0367C54.5016 16.9979 54.7222 16.9361 54.8598 16.8514C54.9975 16.7667 55.0663 16.629 55.0663 16.4384V16.4014C55.0663 15.939 54.9357 15.5808 54.6745 15.3266C54.4169 15.0725 54.0322 14.9455 53.5204 14.9455C52.9874 14.9455 52.5674 15.0637 52.2604 15.3002C51.9568 15.5331 51.7468 15.7925 51.6303 16.0784L50.1426 15.7396C50.3191 15.2455 50.5768 14.8466 50.9156 14.5431C51.258 14.236 51.6515 14.0137 52.0962 13.876C52.5409 13.7348 53.0086 13.6642 53.4992 13.6642C53.8239 13.6642 54.1681 13.7031 54.5316 13.7807C54.8987 13.8548 55.241 13.9925 55.5587 14.1937C55.8799 14.3948 56.1428 14.6825 56.3475 15.0566C56.5522 15.4272 56.6546 15.909 56.6546 16.502V21.9021H55.1087V20.7903H55.0451C54.9428 20.995 54.7892 21.1962 54.5845 21.3939C54.3798 21.5915 54.1169 21.7556 53.7957 21.8862C53.4745 22.0168 53.0898 22.0821 52.6415 22.0821ZM52.9857 20.8115C53.4233 20.8115 53.7975 20.725 54.1081 20.5521C54.4222 20.3791 54.6604 20.1532 54.8228 19.8744C54.9887 19.5921 55.0716 19.2903 55.0716 18.9691V17.9208C55.0151 17.9773 54.9057 18.0302 54.7434 18.0797C54.5845 18.1255 54.4028 18.1661 54.1981 18.2014C53.9933 18.2332 53.7939 18.2632 53.5998 18.2914C53.4057 18.3161 53.2433 18.3373 53.1127 18.355C52.8057 18.3938 52.5251 18.4591 52.2709 18.5508C52.0203 18.6426 51.8192 18.775 51.6674 18.9479C51.5192 19.1173 51.445 19.3432 51.445 19.6256C51.445 20.0174 51.5897 20.3138 51.8792 20.515C52.1686 20.7127 52.5374 20.8115 52.9857 20.8115ZM66.0249 13.7701L63.0759 21.9021H61.3818L58.4276 13.7701H60.127L62.1865 20.0279H62.2712L64.3254 13.7701H66.0249ZM70.2425 22.0821C69.7272 22.0821 69.2613 21.9868 68.8448 21.7962C68.4283 21.6021 68.0983 21.3215 67.8548 20.9544C67.6148 20.5874 67.4948 20.1374 67.4948 19.6044C67.4948 19.1456 67.583 18.7679 67.7595 18.4714C67.9359 18.175 68.1742 17.9402 68.4742 17.7673C68.7742 17.5943 69.1095 17.4638 69.4801 17.3755C69.8507 17.2873 70.2284 17.2202 70.6131 17.1743C71.1001 17.1179 71.4955 17.072 71.799 17.0367C72.1025 16.9979 72.3231 16.9361 72.4608 16.8514C72.5984 16.7667 72.6672 16.629 72.6672 16.4384V16.4014C72.6672 15.939 72.5367 15.5808 72.2755 15.3266C72.0178 15.0725 71.6331 14.9455 71.1213 14.9455C70.5884 14.9455 70.1684 15.0637 69.8613 15.3002C69.5578 15.5331 69.3477 15.7925 69.2313 16.0784L67.7436 15.7396C67.9201 15.2455 68.1777 14.8466 68.5165 14.5431C68.8589 14.236 69.2524 14.0137 69.6972 13.876C70.1419 13.7348 70.6095 13.6642 71.1001 13.6642C71.4249 13.6642 71.769 13.7031 72.1325 13.7807C72.4996 13.8548 72.842 13.9925 73.1596 14.1937C73.4808 14.3948 73.7437 14.6825 73.9485 15.0566C74.1532 15.4272 74.2555 15.909 74.2555 16.502V21.9021H72.7096V20.7903H72.6461C72.5437 20.995 72.3902 21.1962 72.1855 21.3939C71.9808 21.5915 71.7178 21.7556 71.3966 21.8862C71.0754 22.0168 70.6907 22.0821 70.2425 22.0821ZM70.5866 20.8115C71.0243 20.8115 71.3984 20.725 71.709 20.5521C72.0231 20.3791 72.2614 20.1532 72.4237 19.8744C72.5896 19.5921 72.6725 19.2903 72.6725 18.9691V17.9208C72.6161 17.9773 72.5067 18.0302 72.3443 18.0797C72.1855 18.1255 72.0037 18.1661 71.799 18.2014C71.5943 18.2332 71.3949 18.2632 71.2007 18.2914C71.0066 18.3161 70.8443 18.3373 70.7137 18.355C70.4066 18.3938 70.126 18.4591 69.8719 18.5508C69.6213 18.6426 69.4201 18.775 69.2683 18.9479C69.1201 19.1173 69.046 19.3432 69.046 19.6256C69.046 20.0174 69.1907 20.3138 69.4801 20.515C69.7695 20.7127 70.1384 20.8115 70.5866 20.8115ZM83.0011 13.9078C82.9446 13.4066 82.7116 13.0183 82.3022 12.743C81.8928 12.4642 81.3775 12.3248 80.7563 12.3248C80.3116 12.3248 79.9269 12.3954 79.6022 12.5366C79.2774 12.6742 79.0251 12.8648 78.8451 13.1083C78.6686 13.3483 78.5804 13.6219 78.5804 13.929C78.5804 14.1866 78.6404 14.409 78.7604 14.596C78.8839 14.7831 79.0445 14.9402 79.2421 15.0672C79.4433 15.1908 79.6586 15.2949 79.888 15.3796C80.1175 15.4608 80.3381 15.5278 80.5498 15.5808L81.6087 15.8561C81.9546 15.9408 82.3093 16.0555 82.6728 16.2002C83.0364 16.3449 83.3734 16.5355 83.684 16.772C83.9946 17.0085 84.2452 17.3014 84.4358 17.6508C84.6299 18.0002 84.727 18.4185 84.727 18.9056C84.727 19.5197 84.5682 20.065 84.2505 20.5415C83.9364 21.018 83.4793 21.3939 82.8793 21.6692C82.2828 21.9445 81.561 22.0821 80.7139 22.0821C79.9022 22.0821 79.1998 21.9533 78.6068 21.6956C78.0139 21.438 77.5497 21.0727 77.2144 20.5997C76.8791 20.1232 76.6938 19.5585 76.6585 18.9056H78.2998C78.3315 19.2973 78.4586 19.6238 78.681 19.885C78.9068 20.1427 79.1945 20.335 79.5439 20.4621C79.8969 20.5856 80.2833 20.6474 80.7034 20.6474C81.1657 20.6474 81.5769 20.575 81.9369 20.4303C82.3005 20.2821 82.5864 20.0774 82.7946 19.8162C83.0028 19.5515 83.107 19.2426 83.107 18.8897C83.107 18.5685 83.0152 18.3055 82.8317 18.1008C82.6516 17.8961 82.4063 17.7267 82.0958 17.5926C81.7887 17.4585 81.441 17.3402 81.0528 17.2379L79.7716 16.8884C78.9033 16.652 78.2151 16.3043 77.7068 15.8455C77.2021 15.3866 76.9497 14.7796 76.9497 14.0243C76.9497 13.3995 77.1191 12.8542 77.458 12.3883C77.7968 11.9224 78.2556 11.5607 78.8345 11.303C79.4133 11.0418 80.0663 10.9112 80.7934 10.9112C81.5275 10.9112 82.1752 11.0401 82.7364 11.2977C83.3011 11.5554 83.7458 11.9101 84.0705 12.3619C84.3952 12.8101 84.5646 13.3254 84.5788 13.9078H83.0011ZM90.5766 22.0662C89.7895 22.0662 89.1118 21.888 88.5436 21.5315C87.9789 21.1715 87.5447 20.6756 87.2412 20.0438C86.9377 19.412 86.7859 18.6885 86.7859 17.8732C86.7859 17.0473 86.9412 16.3184 87.2518 15.6866C87.5624 15.0513 88 14.5554 88.5648 14.199C89.1295 13.8425 89.7948 13.6642 90.5607 13.6642C91.1784 13.6642 91.729 13.779 92.2125 14.0084C92.696 14.2343 93.0861 14.5519 93.3825 14.9613C93.6825 15.3708 93.8608 15.849 93.9173 16.3961H92.3766C92.2919 16.0149 92.0978 15.6866 91.7943 15.4113C91.4943 15.136 91.0919 14.9984 90.5872 14.9984C90.146 14.9984 89.7595 15.1149 89.4277 15.3478C89.0995 15.5772 88.8436 15.9055 88.6601 16.3325C88.4765 16.7561 88.3848 17.2573 88.3848 17.8361C88.3848 18.4291 88.4748 18.9409 88.6548 19.3715C88.8348 19.8021 89.0889 20.1356 89.4171 20.3721C89.7489 20.6085 90.1389 20.7268 90.5872 20.7268C90.8872 20.7268 91.1589 20.6721 91.4025 20.5627C91.6495 20.4497 91.856 20.2891 92.0219 20.0809C92.1913 19.8726 92.3096 19.6221 92.3766 19.3291H93.9173C93.8608 19.855 93.6896 20.3244 93.4037 20.7374C93.1178 21.1503 92.7349 21.475 92.2549 21.7115C91.7784 21.948 91.2189 22.0662 90.5766 22.0662ZM96.2064 21.9021V13.7701H97.7365V15.0619H97.8212C97.9694 14.6243 98.2306 14.2801 98.6047 14.0295C98.9824 13.7754 99.4095 13.6484 99.886 13.6484C99.9848 13.6484 100.101 13.6519 100.235 13.6589C100.373 13.666 100.481 13.6748 100.558 13.6854V15.1996C100.495 15.1819 100.382 15.1625 100.219 15.1413C100.057 15.1166 99.8948 15.1043 99.7324 15.1043C99.3583 15.1043 99.0248 15.1837 98.7318 15.3425C98.4424 15.4978 98.213 15.7149 98.0436 15.9937C97.8741 16.269 97.7894 16.5831 97.7894 16.9361V21.9021H96.2064ZM102.525 21.9021V13.7701H104.108V21.9021H102.525ZM103.324 12.5154C103.049 12.5154 102.812 12.4236 102.615 12.2401C102.42 12.053 102.323 11.8307 102.323 11.573C102.323 11.3118 102.42 11.0895 102.615 10.9059C102.812 10.7189 103.049 10.6253 103.324 10.6253C103.599 10.6253 103.834 10.7189 104.028 10.9059C104.226 11.0895 104.325 11.3118 104.325 11.573C104.325 11.8307 104.226 12.053 104.028 12.2401C103.834 12.4236 103.599 12.5154 103.324 12.5154ZM106.834 24.9516V13.7701H108.379V15.0884H108.512C108.604 14.919 108.736 14.7231 108.909 14.5007C109.082 14.2784 109.322 14.0843 109.629 13.9184C109.936 13.7489 110.342 13.6642 110.847 13.6642C111.503 13.6642 112.089 13.8301 112.604 14.1619C113.12 14.4937 113.524 14.9719 113.817 15.5966C114.113 16.2214 114.261 16.9732 114.261 17.852C114.261 18.7309 114.115 19.4844 113.822 20.1127C113.529 20.7374 113.127 21.2192 112.615 21.558C112.103 21.8933 111.519 22.0609 110.862 22.0609C110.368 22.0609 109.964 21.978 109.65 21.8121C109.339 21.6462 109.096 21.4521 108.919 21.2297C108.743 21.0074 108.607 20.8097 108.512 20.6368H108.416V24.9516H106.834ZM108.385 17.8361C108.385 18.4079 108.468 18.9091 108.634 19.3397C108.799 19.7703 109.039 20.1074 109.354 20.3509C109.668 20.5909 110.052 20.7109 110.508 20.7109C110.981 20.7109 111.376 20.5856 111.694 20.335C112.011 20.0809 112.251 19.7368 112.414 19.3026C112.58 18.8685 112.662 18.3797 112.662 17.8361C112.662 17.2996 112.581 16.8179 112.419 16.3908C112.26 15.9637 112.02 15.6266 111.699 15.3796C111.381 15.1325 110.984 15.009 110.508 15.009C110.049 15.009 109.661 15.1272 109.343 15.3637C109.029 15.6002 108.791 15.9302 108.628 16.3537C108.466 16.7773 108.385 17.2714 108.385 17.8361ZM120.427 13.7701V15.0407H115.985V13.7701H120.427ZM117.177 11.8218H118.76V19.5144C118.76 19.8215 118.805 20.0527 118.897 20.208C118.989 20.3597 119.107 20.4638 119.252 20.5203C119.4 20.5733 119.561 20.5997 119.734 20.5997C119.861 20.5997 119.972 20.5909 120.067 20.5733C120.163 20.5556 120.237 20.5415 120.29 20.5309L120.576 21.8386C120.484 21.8739 120.353 21.9092 120.184 21.9445C120.014 21.9833 119.803 22.0045 119.548 22.008C119.132 22.0151 118.744 21.9409 118.384 21.7856C118.024 21.6303 117.732 21.3903 117.51 21.0656C117.288 20.7409 117.177 20.3332 117.177 19.8426V11.8218Z" fill="#1E293B"/>
</g>
</g>
<path id="Vector" d="M30.605 8H16.8077C15.7689 8 14.9262 8.84273 14.9262 9.88145V23.6788C14.9262 24.7175 15.7689 25.5602 16.8077 25.5602H30.605C31.6437 25.5602 32.4865 24.7175 32.4865 23.6788V9.88145C32.4865 8.84273 31.6437 8 30.605 8ZM24.4824 21.6954C24.4824 23.4044 23.479 24.1844 22.0169 24.1844C20.696 24.1844 19.9317 23.5024 19.5397 22.6753L20.8841 21.864C21.1428 22.3226 21.378 22.7106 21.9464 22.7106C22.4873 22.7106 22.8322 22.499 22.8322 21.6719V16.0628H24.4824V21.6954V21.6954ZM28.3864 24.1844C26.8538 24.1844 25.8622 23.4554 25.38 22.499L26.7245 21.7229C27.0773 22.2991 27.5398 22.7263 28.3512 22.7263C29.0332 22.7263 29.4722 22.3853 29.4722 21.911C29.4722 21.3466 29.0254 21.1467 28.2689 20.8135L27.8573 20.6371C26.6657 20.1315 25.8778 19.4926 25.8778 18.1481C25.8778 16.9095 26.8225 15.9687 28.2924 15.9687C29.3429 15.9687 30.0954 16.3333 30.6364 17.2897L29.3507 18.1128C29.0685 17.6072 28.7627 17.4073 28.2885 17.4073C27.8063 17.4073 27.5006 17.713 27.5006 18.1128C27.5006 18.6067 27.8063 18.8066 28.5158 19.1163L28.9274 19.2926C30.3306 19.8924 31.1185 20.5078 31.1185 21.8875C31.1185 23.3691 29.9504 24.1844 28.3864 24.1844V24.1844Z" fill="#1E293B"/>
</g>
</svg>
